<svg xmlns="http://www.w3.org/2000/svg" width="92" height="26" fill="none"><g fill="#000" clip-path="url(#a)"><path d="M40.683 21.795h-9.665c-.022 0-.022 0-.022-.023V6.084c0-.022 0-.022.022-.022h9.665c3.653 0 5.011 1.932 5.011 5.326v4.967c0 3.417-1.358 5.44-5.01 5.44ZM35.005 9.77v8.316h6.636c.023 0 .023 0 .023-.022V9.793c0-.023 0-.023-.023-.023zM58.62 21.795h-8.529c-2.45 0-3.363-1.08-3.363-3.44V9.5c0-2.36.914-3.438 3.363-3.438h8.552c2.45 0 3.34 1.078 3.34 3.438v8.856c0 2.36-.913 3.439-3.362 3.439Zm-7.838-3.709h7.17c.023 0 .023 0 .023-.022V9.793c0-.023 0-.023-.023-.023h-7.17c-.023 0-.023 0-.023.023v8.27c0 .023 0 .023.023.023m22.948 3.709H62.908c-.022 0-.022 0-.022-.023V18.11c0-.023 0-.023.023-.023h10.11c.022 0 .022 0 .022-.022V15.77c0-.022 0-.022-.022-.022h-6.837c-2.45 0-3.363-1.08-3.363-3.44V9.546c0-2.36.958-3.483 3.452-3.483h10.668c.022 0 .022 0 .022.022v3.664c0 .022 0 .022-.022.022H66.87c-.022 0-.022 0-.022.023v2.225c0 .022 0 .022.022.022h6.86c2.427 0 3.34 1.057 3.34 3.439v2.877c0 2.36-.913 3.439-3.34 3.439Zm14.932 0H77.84c-.022 0-.022 0-.022-.023V18.11c0-.023 0-.023.022-.023h10.11c.023 0 .023 0 .023-.022V15.77c0-.022 0-.022-.022-.022h-6.837c-2.45 0-3.363-1.08-3.363-3.44V9.546c0-2.36.958-3.483 3.452-3.483H91.87c.022 0 .022 0 .022.022v3.664c0 .022 0 .022-.022.022H81.803c-.022 0-.022 0-.022.023v2.225c0 .022 0 .022.022.022h6.86c2.427 0 3.34 1.057 3.34 3.439v2.877c0 2.36-.913 3.439-3.34 3.439Z"/><path fill-rule="evenodd" d="M0 2.957c0-.098.078-.177.175-.177h15.43c.097 0 .175.08.175.177V9.15H6.313v9.556H.175A.176.176 0 0 1 0 18.53z" clip-rule="evenodd"/><path fill-rule="evenodd" d="M22.087 24.901a.176.176 0 0 1-.175.177H6.482a.176.176 0 0 1-.175-.177v-6.194h9.468V9.151h6.137c.097 0 .175.08.175.177V24.9Z" clip-rule="evenodd"/></g><defs><clipPath id="a"><path fill="#fff" d="M0 0h92v26H0z"/></clipPath></defs></svg>